<svg xmlns="http://www.w3.org/2000/svg" width="1280" height="400" viewBox="0 0 1280 400" role="img" aria-labelledby="title desc">
<title id="title">EdhiConnect AI</title><desc id="desc">Citizen, driver and headquarters portals connected through a shared cloud platform.</desc>
<defs><linearGradient id="bg" x2="1" y2="1"><stop stop-color="#071629"/><stop offset="1" stop-color="#152e45"/></linearGradient><linearGradient id="accent"><stop stop-color="#10b981"/><stop offset="1" stop-color="#56d5eb"/></linearGradient></defs>
<rect width="1280" height="400" rx="24" fill="url(#bg)"/>
<circle cx="1190" cy="30" r="220" fill="#10b981" opacity=".05"/><circle cx="720" cy="430" r="240" fill="#38bdf8" opacity=".04"/>
<rect x="58" y="52" width="68" height="68" rx="19" fill="#ef4444"/><path d="M84 68h16v15h15v16h-15v15H84V99H69V83h15z" fill="#fff"/>
<text x="147" y="78" fill="#68e0bd" font-size="14" letter-spacing="3" font-family="Segoe UI,Arial,sans-serif" font-weight="700">CONNECTED CARE · COORDINATED RESPONSE</text>
<text x="147" y="114" fill="#f8fafc" font-size="31" font-family="Segoe UI,Arial,sans-serif" font-weight="700">EdhiConnect AI</text>
<text x="58" y="198" fill="#fff" font-size="43" font-family="Segoe UI,Arial,sans-serif" font-weight="700">Every request. One connected mission.</text>
<text x="58" y="240" fill="#b8ccdc" font-size="20" font-family="Segoe UI,Arial,sans-serif">Emergency coordination meets humanitarian welfare.</text>
<g font-family="Segoe UI,Arial,sans-serif" font-size="15" fill="#e2f5f1"><rect x="58" y="288" width="175" height="42" rx="21" fill="#1c3c4a"/><text x="82" y="315">Citizen services</text><rect x="245" y="288" width="152" height="42" rx="21" fill="#1c3c4a"/><text x="270" y="315">Driver portal</text><rect x="409" y="288" width="171" height="42" rx="21" fill="#1c3c4a"/><text x="433" y="315">Operations HQ</text></g>
<g stroke="url(#accent)" stroke-width="2" fill="none" opacity=".7"><path d="M1063 178V85H971"/><path d="M1063 222v94H971"/><path d="M1104 200h83"/></g>
<g font-family="Segoe UI,Arial,sans-serif" text-anchor="middle"><rect x="892" y="55" width="154" height="60" rx="15" fill="#183749" stroke="#3c687b"/><text x="969" y="92" fill="#d7eff6" font-size="17">Citizen</text><rect x="892" y="286" width="154" height="60" rx="15" fill="#183749" stroke="#3c687b"/><text x="969" y="323" fill="#d7eff6" font-size="17">Driver</text><rect x="1161" y="158" width="90" height="84" rx="17" fill="#183749" stroke="#3c687b"/><text x="1206" y="207" fill="#d7eff6" font-size="19">HQ</text><circle cx="1063" cy="200" r="53" fill="#0f493f" stroke="#37cfa6" stroke-width="2"/><text x="1063" y="195" fill="#e5fff8" font-size="17" font-weight="700">SHARED</text><text x="1063" y="218" fill="#83e5c8" font-size="16">CLOUD</text></g>
<text x="58" y="369" fill="#7898ad" font-size="13" font-family="Segoe UI,Arial,sans-serif" letter-spacing="2">FLUTTER + FIREBASE · ANDROID + WEB · DISTRIBUTED CLIENT ARCHITECTURE</text>
</svg>
